<svg xmlns="http://www.w3.org/2000/svg" viewBox="0 0 1225 505"><defs><style>.cls-1{fill:#202020;}.cls-2{fill:#0071bc;}.cls-3{fill:none;stroke:#202020;stroke-miterlimit:10;stroke-width:10px;}</style></defs><g id="C"><path class="cls-1" d="M6489.5,7349.5a150,150,0,0,1,0-300h79.29l58.57-58.57a248.87,248.87,0,0,0-137.86-41.43c-138.07,0-250,111.93-250,250s111.93,250,250,250a249.61,249.61,0,0,0,200-100Z" transform="translate(-6239.5 -6949.5)"/></g><g id="_23" data-name="23"><rect class="cls-2" x="329.29" y="100" width="520.71" height="100"/><rect class="cls-2" x="250" y="300" width="600" height="100"/><rect class="cls-1" x="550" y="200" width="300" height="100"/><rect class="cls-1" x="250" y="400" width="725.5" height="100"/><rect class="cls-1" x="550" y="50" width="425.5" height="50"/></g><g id="_0" data-name="0"><path class="cls-1" d="M7339.5,7299.5h-25A125,125,0,1,1,7203.67,7100l87.18-87.17a224.58,224.58,0,0,0-76.35-13.3c-124.26,0-225,100.74-225,225s100.74,225,225,225a224,224,0,0,0,125-37.9Z" transform="translate(-6239.5 -6949.5)"/><circle class="cls-3" cx="975.5" cy="275" r="125"/><circle class="cls-3" cx="975.5" cy="275" r="225"/></g><g id="_4" data-name="4"><polygon class="cls-1" points="1125 25 925 225 995.71 295.71 1125 166.42 1125 500 1225 500 1225 25 1125 25"/><rect class="cls-1" x="925" y="225" width="300" height="100"/><rect class="cls-1" x="1050" y="150" width="100" height="100"/></g></svg>