<svg id="图层_1" data-name="图层 1" xmlns="http://www.w3.org/2000/svg" viewBox="0 0 1000 1000"><defs><style>.cls-1,.cls-2{fill:#0071bc;}.cls-2{stroke:#0071bc;stroke-miterlimit:10;}</style></defs><path class="cls-1" d="M7199.5,6699.5c-276.14,0-500,223.86-500,500s223.86,500,500,500,500-223.86,500-500S7475.64,6699.5,7199.5,6699.5Zm0,925c-234.72,0-425-190.28-425-425s190.28-425,425-425,425,190.28,425,425S7434.22,7624.5,7199.5,7624.5Z" transform="translate(-6699.5 -6699.5)"/><path class="cls-1" d="M7072.56,7358.5c75.63,49.71,178.18,36,237.77-35a182,182,0,0,0,17.35-24.5l29,13.55a213.82,213.82,0,0,1-21.94,31.47c-70.94,84.55-193.62,100.07-282.87,39.11Z" transform="translate(-6699.5 -6699.5)"/><path class="cls-2" d="M7237.47,7146.68l-31.87-11.6a16.1,16.1,0,0,0-20.62,9.61l-20.42,56.12a50,50,0,0,0,29.88,64.08H7229a7.55,7.55,0,0,0,7.55-7.54v-42.46h-23.91Z" transform="translate(-6699.5 -6699.5)"/><rect class="cls-1" x="7323.41" y="6993.77" width="65" height="75" rx="25" transform="translate(5941.86 9027.31) rotate(-165)"/><rect class="cls-1" x="7010.59" y="7000.23" width="65" height="75" rx="25" transform="translate(5325.19 8959.03) rotate(-165)"/></svg>